<svg width="18" height="18" viewBox="0 0 18 18" fill="none" xmlns="http://www.w3.org/2000/svg">
<path d="M5.2875 5.28752C5.1469 5.42817 5.06791 5.6189 5.06791 5.81777C5.06791 6.01665 5.1469 6.20738 5.2875 6.34802L7.9395 9.00002L5.2875 11.652C5.21587 11.7212 5.15873 11.804 5.11942 11.8955C5.08012 11.987 5.05943 12.0854 5.05856 12.185C5.0577 12.2846 5.07667 12.3833 5.11438 12.4755C5.15209 12.5677 5.20778 12.6514 5.2782 12.7218C5.34862 12.7922 5.43236 12.8479 5.52453 12.8856C5.61671 12.9233 5.71547 12.9423 5.81505 12.9415C5.91463 12.9406 6.01305 12.9199 6.10455 12.8806C6.19606 12.8413 6.27881 12.7842 6.348 12.7125L9 10.0605L11.652 12.7125C11.7935 12.8491 11.9829 12.9247 12.1795 12.923C12.3762 12.9213 12.5643 12.8424 12.7034 12.7034C12.8424 12.5643 12.9213 12.3762 12.923 12.1796C12.9247 11.9829 12.8491 11.7935 12.7125 11.652L10.0605 9.00002L12.7125 6.34802C12.8491 6.20657 12.9247 6.01712 12.923 5.82047C12.9213 5.62382 12.8424 5.43571 12.7034 5.29666C12.5643 5.1576 12.3762 5.07873 12.1795 5.07702C11.9829 5.07531 11.7935 5.1509 11.652 5.28752L9 7.93952L6.348 5.28752C6.20735 5.14692 6.01662 5.06793 5.81775 5.06793C5.61888 5.06793 5.42814 5.14692 5.2875 5.28752Z" fill="#2A2A2E"/>
</svg>
