<svg width="24" height="24" viewBox="0 0 24 24" fill="none" xmlns="http://www.w3.org/2000/svg">
<path d="M11.7487 8.80499C11.0831 8.80463 10.4418 9.055 9.95249 9.50624C9.85385 9.42279 9.72919 9.37638 9.59999 9.37499C9.2005 9.37836 8.80424 9.30319 8.43374 9.15374C8.959 8.46895 9.28125 7.65033 9.36374 6.79124H9.61124C9.76043 6.79124 9.9035 6.73198 10.009 6.62649C10.1145 6.521 10.1737 6.37792 10.1737 6.22874C10.1737 6.07956 10.1145 5.93648 10.009 5.83099C9.9035 5.7255 9.76043 5.66624 9.61124 5.66624H8.00249V4.79249C8.00249 4.64331 7.94323 4.50023 7.83774 4.39474C7.73225 4.28925 7.58918 4.22999 7.43999 4.22999C7.29081 4.22999 7.14773 4.28925 7.04224 4.39474C6.93676 4.50023 6.87749 4.64331 6.87749 4.79249V5.66999H5.27999C5.13081 5.66999 4.98773 5.72925 4.88224 5.83474C4.77676 5.94023 4.71749 6.08331 4.71749 6.23249C4.71749 6.38167 4.77676 6.52475 4.88224 6.63024C4.98773 6.73573 5.13081 6.79499 5.27999 6.79499H8.21999C8.14378 7.41975 7.89439 8.01075 7.49999 8.50124C7.21414 8.17881 6.99038 7.80629 6.83999 7.40249C6.81952 7.32793 6.7839 7.2584 6.73535 7.19823C6.6868 7.13805 6.62637 7.08854 6.55783 7.05276C6.48929 7.01699 6.41411 6.99573 6.33698 6.99032C6.25986 6.9849 6.18244 6.99544 6.10957 7.02128C6.0367 7.04712 5.96994 7.08771 5.91346 7.1405C5.85698 7.1933 5.81199 7.25717 5.78129 7.32813C5.7506 7.39909 5.73487 7.47562 5.73507 7.55294C5.73528 7.63025 5.75142 7.70669 5.78249 7.77749C5.96681 8.27298 6.23441 8.73335 6.57374 9.13874C6.16421 9.29376 5.72909 9.3701 5.29124 9.36374C5.14206 9.36374 4.99898 9.423 4.89349 9.52849C4.78801 9.63398 4.72874 9.77706 4.72874 9.92624C4.72874 10.0754 4.78801 10.2185 4.89349 10.324C4.99898 10.4295 5.14206 10.4887 5.29124 10.4887C6.06259 10.5145 6.82631 10.329 7.49999 9.95249C8.03646 10.2737 8.64217 10.4614 9.26624 10.5C9.13959 10.8134 9.07465 11.1482 9.07499 11.4862V11.9062H5.16374C5.08264 11.906 5.00244 11.9233 4.92866 11.957C4.85487 11.9906 4.78923 12.0398 4.73624 12.1012C4.68277 12.1627 4.6436 12.2353 4.62155 12.3138C4.59951 12.3923 4.59513 12.4746 4.60874 12.555C4.60874 12.5925 4.67999 13.0162 4.80749 13.6125C4.82192 13.6864 4.81374 13.763 4.78403 13.8322C4.75431 13.9015 4.70443 13.9601 4.64089 14.0006C4.57735 14.0411 4.50309 14.0615 4.4278 14.0591C4.3525 14.0568 4.27965 14.0318 4.21874 13.9875C3.03749 13.125 1.77749 12.075 1.38374 11.3362C1.36719 11.3061 1.34839 11.2773 1.32749 11.25C1.14617 10.992 1.04923 10.6841 1.04999 10.3687V4.31999C1.04999 3.90924 1.21316 3.51531 1.50361 3.22486C1.79406 2.93441 2.18799 2.77124 2.59874 2.77124H12.2512C12.662 2.77124 13.0559 2.93441 13.3464 3.22486C13.6368 3.51531 13.8 3.90924 13.8 4.31999V8.81999L11.7487 8.80499ZM22.95 11.4787V17.5125C22.9525 17.8281 22.8554 18.1365 22.6725 18.3937C22.6493 18.4249 22.6304 18.4589 22.6162 18.495C22.2412 19.245 20.9625 20.2837 19.7812 21.1537C19.7203 21.1981 19.6475 21.223 19.5722 21.2254C19.4969 21.2277 19.4226 21.2073 19.3591 21.1668C19.2956 21.1264 19.2457 21.0677 19.216 20.9985C19.1862 20.9293 19.1781 20.8527 19.1925 20.7787C19.32 20.1787 19.3875 19.755 19.3912 19.7175C19.4043 19.6373 19.3998 19.5551 19.3779 19.4769C19.3559 19.3986 19.3172 19.326 19.2644 19.2643C19.2115 19.2025 19.1458 19.153 19.0719 19.1192C18.998 19.0855 18.9175 19.0682 18.8362 19.0687H11.7487C11.5447 19.0687 11.3427 19.0284 11.1543 18.9501C10.9659 18.8718 10.7949 18.7571 10.6509 18.6125C10.507 18.4679 10.3931 18.2962 10.3157 18.1075C10.2383 17.9187 10.199 17.7165 10.2 17.5125V11.4787C10.2 11.068 10.3632 10.6741 10.6536 10.3836C10.9441 10.0932 11.338 9.92999 11.7487 9.92999H21.4012C21.812 9.92999 22.2059 10.0932 22.4964 10.3836C22.7868 10.6741 22.95 11.068 22.95 11.4787ZM19.0425 16.7287L18.3937 15.1125L17.1112 11.9025C17.1028 11.8805 17.0928 11.8592 17.0812 11.8387L17.0587 11.8012L17.025 11.7562L16.9912 11.7187L16.9537 11.685L16.905 11.6475L16.875 11.625L16.815 11.5912C16.8025 11.5896 16.7899 11.5896 16.7775 11.5912L16.7175 11.5725H16.5L16.4362 11.5912C16.4238 11.5896 16.4112 11.5896 16.3987 11.5912L16.3425 11.625L16.3012 11.6437L16.2562 11.6812L16.2187 11.715L16.185 11.7525L16.1475 11.7975C16.1475 11.7975 16.1475 11.8237 16.1287 11.835L16.095 11.8987L14.7825 15.1125L14.1337 16.7325C14.1039 16.8023 14.0885 16.8773 14.0882 16.9532C14.088 17.0291 14.103 17.1042 14.1324 17.1742C14.1618 17.2442 14.2049 17.3075 14.2593 17.3605C14.3136 17.4134 14.378 17.4549 14.4487 17.4825C14.5156 17.5091 14.5868 17.5231 14.6587 17.5237C14.7734 17.5214 14.8846 17.4842 14.9777 17.4173C15.0707 17.3503 15.1413 17.2567 15.18 17.1487L15.6825 15.8925H17.4975L18 17.1487C18.0378 17.2573 18.1081 17.3515 18.2014 17.4186C18.2946 17.4857 18.4063 17.5224 18.5212 17.5237C18.5919 17.5227 18.6618 17.5087 18.7275 17.4825C18.7985 17.4554 18.8633 17.4141 18.9179 17.3612C18.9726 17.3084 19.0159 17.2449 19.0454 17.1748C19.0748 17.1047 19.0897 17.0294 19.0892 16.9534C19.0887 16.8773 19.0728 16.8022 19.0425 16.7325V16.7287ZM16.125 14.7675H17.04L16.5825 13.6425L16.125 14.7675Z" fill="#1E1F22"/>
</svg>
