<svg width="24" height="25" viewBox="0 0 24 25" fill="none" xmlns="http://www.w3.org/2000/svg">
<path fill-rule="evenodd" clip-rule="evenodd" d="M3 13.5H15V11.5H3V13.5Z" fill="#1E1F22"/>
<path fill-rule="evenodd" clip-rule="evenodd" d="M5.79303 8.293L2.29303 11.793C2.10556 11.9805 2.00024 12.2348 2.00024 12.5C2.00024 12.7652 2.10556 13.0195 2.29303 13.207L5.79303 16.707L7.20703 15.293L4.41403 12.5L7.20703 9.707L5.79303 8.293ZM8.00003 4.5C8.00003 4.23478 8.10539 3.98043 8.29292 3.79289C8.48046 3.60536 8.73481 3.5 9.00003 3.5H21C21.2652 3.5 21.5196 3.60536 21.7071 3.79289C21.8947 3.98043 22 4.23478 22 4.5V20.5C22 20.7652 21.8947 21.0196 21.7071 21.2071C21.5196 21.3946 21.2652 21.5 21 21.5H9.00003C8.73481 21.5 8.48046 21.3946 8.29292 21.2071C8.10539 21.0196 8.00003 20.7652 8.00003 20.5V17.5H10V19.5H20V5.5H10V7.5H8.00003V4.5Z" fill="#1E1F22"/>
</svg>
